<svg width="45" height="44" viewBox="0 0 45 44" fill="none" xmlns="http://www.w3.org/2000/svg">
<path d="M5.17751 20.9212L5.1775 20.9212L5.17655 20.924C4.30616 23.4974 3.86719 25.9874 3.86719 28.3915V35.5374C3.86719 36.3658 4.53876 37.0374 5.36719 37.0374H14.5644C15.3928 37.0374 16.0644 36.3658 16.0644 35.5374L16.0644 28.3116L16.0643 28.3074C16.0389 25.2764 16.5221 22.5199 17.5062 20.0314C18.4113 17.7775 19.5063 15.6054 20.7914 13.5149C21.2148 12.8261 21.0325 11.9128 20.348 11.4567L15.2563 8.06382C14.7076 7.69814 13.9701 7.72756 13.4622 8.17732C11.7577 9.68636 10.2079 11.4881 8.8113 13.579L8.81061 13.58C7.28391 15.878 6.07268 18.3253 5.17751 20.9212ZM24.8892 20.9212L24.8882 20.924C24.0178 23.4974 23.5789 25.9874 23.5789 28.3915V35.5374C23.5789 36.3658 24.2504 37.0374 25.0789 37.0374H34.276C35.1045 37.0374 35.776 36.3658 35.776 35.5374L35.7761 28.3116L35.776 28.3074C35.7506 25.2765 36.2338 22.5201 37.2178 20.0318C38.1229 17.7777 39.2179 15.6055 40.5031 13.5149C40.9265 12.8261 40.7442 11.9128 40.0596 11.4567L34.968 8.06382C34.4193 7.69814 33.6818 7.72756 33.1738 8.17732C31.4694 9.68636 29.9196 11.4881 28.523 13.579L28.5223 13.58C26.9956 15.878 25.7844 18.3253 24.8892 20.9212Z" fill="url(#paint0_linear_202_2155)" stroke="#CAFF33"/>
<defs>
<linearGradient id="paint0_linear_202_2155" x1="22.4848" y1="8.06677" x2="22.4848" y2="36.5374" gradientUnits="userSpaceOnUse">
<stop stop-color="#CAFF33"/>
<stop offset="1" stop-color="#191919"/>
</linearGradient>
</defs>
</svg>
